{
	"patcher" : 	{
		"fileversion" : 1,
		"appversion" : 		{
			"major" : 6,
			"minor" : 0,
			"revision" : 7
		}
,
		"rect" : [ 214.0, 50.0, 1002.0, 634.0 ],
		"bglocked" : 0,
		"openinpresentation" : 0,
		"default_fontsize" : 12.0,
		"default_fontface" : 0,
		"default_fontname" : "Arial",
		"gridonopen" : 0,
		"gridsize" : [ 15.0, 15.0 ],
		"gridsnaponopen" : 0,
		"statusbarvisible" : 2,
		"toolbarvisible" : 1,
		"boxanimatetime" : 200,
		"imprint" : 0,
		"enablehscroll" : 1,
		"enablevscroll" : 1,
		"devicewidth" : 0.0,
		"description" : "",
		"digest" : "",
		"tags" : "",
		"boxes" : [ 			{
				"box" : 				{
					"fontname" : "Arial",
					"fontsize" : 12.0,
					"id" : "obj-33",
					"maxclass" : "newobj",
					"numinlets" : 1,
					"numoutlets" : 1,
					"outlettype" : [ "bang" ],
					"patching_rect" : [ 565.0, 73.5, 60.0, 20.0 ],
					"text" : "loadbang"
				}

			}
, 			{
				"box" : 				{
					"fontname" : "Arial",
					"fontsize" : 10.435669,
					"id" : "obj-31",
					"linecount" : 2,
					"maxclass" : "message",
					"numinlets" : 2,
					"numoutlets" : 1,
					"outlettype" : [ "" ],
					"patching_rect" : [ 477.0, 133.0, 148.0, 28.0 ],
					"text" : "window size 214 44 616 395, window exec"
				}

			}
, 			{
				"box" : 				{
					"fontname" : "Arial",
					"fontsize" : 11.595187,
					"id" : "obj-24",
					"maxclass" : "newobj",
					"numinlets" : 1,
					"numoutlets" : 2,
					"outlettype" : [ "", "" ],
					"patching_rect" : [ 583.0, 181.5, 67.0, 20.0 ],
					"save" : [ "#N", "thispatcher", ";", "#Q", "window", "flags", "grow", "close", "zoom", "nofloat", "menu", "minimize", ";", "#Q", "window", "constrain", 50, 50, 32768, 32768, ";", "#Q", "window", "size", 214, 50, 1216, 684, ";", "#Q", "window", "title", ";", "#Q", "window", "exec", ";", "#Q", "savewindow", 1, ";", "#Q", "end", ";" ],
					"text" : "thispatcher"
				}

			}
, 			{
				"box" : 				{
					"fontname" : "Arial",
					"fontsize" : 11.595187,
					"id" : "obj-32",
					"maxclass" : "newobj",
					"numinlets" : 2,
					"numoutlets" : 2,
					"outlettype" : [ "", "" ],
					"patching_rect" : [ 583.0, 215.5, 79.0, 20.0 ],
					"text" : "route window"
				}

			}
, 			{
				"box" : 				{
					"fontname" : "Verdana",
					"fontsize" : 12.0,
					"frgb" : 0.0,
					"id" : "obj-68",
					"maxclass" : "comment",
					"numinlets" : 1,
					"numoutlets" : 0,
					"patching_rect" : [ 733.0, 107.0, 81.0, 21.0 ],
					"text" : "Normal size"
				}

			}
, 			{
				"box" : 				{
					"fontname" : "Verdana",
					"fontsize" : 12.0,
					"frgb" : 0.0,
					"id" : "obj-67",
					"maxclass" : "comment",
					"numinlets" : 1,
					"numoutlets" : 0,
					"patching_rect" : [ 556.5, 107.0, 113.0, 21.0 ],
					"text" : "Presentation size"
				}

			}
, 			{
				"box" : 				{
					"fontname" : "Arial",
					"fontsize" : 10.435669,
					"id" : "obj-29",
					"linecount" : 2,
					"maxclass" : "message",
					"numinlets" : 2,
					"numoutlets" : 1,
					"outlettype" : [ "" ],
					"patching_rect" : [ 697.0, 133.0, 148.0, 28.0 ],
					"text" : "window size 314 44 926 613, window exec"
				}

			}
, 			{
				"box" : 				{
					"id" : "obj-13",
					"maxclass" : "meter~",
					"numinlets" : 1,
					"numoutlets" : 1,
					"outlettype" : [ "float" ],
					"patching_rect" : [ 125.0, 772.5, 15.0, 86.0 ],
					"presentation" : 1,
					"presentation_rect" : [ 351.0, 101.5, 23.0, 164.0 ]
				}

			}
, 			{
				"box" : 				{
					"id" : "obj-12",
					"maxclass" : "button",
					"numinlets" : 1,
					"numoutlets" : 1,
					"outlettype" : [ "bang" ],
					"patching_rect" : [ 264.0, 789.0, 20.0, 20.0 ],
					"presentation" : 1,
					"presentation_rect" : [ 90.5, 155.5, 20.0, 20.0 ]
				}

			}
, 			{
				"box" : 				{
					"fontname" : "Arial",
					"fontsize" : 24.0,
					"frgb" : 0.0,
					"id" : "obj-11",
					"maxclass" : "comment",
					"numinlets" : 1,
					"numoutlets" : 0,
					"patching_rect" : [ 252.0, 59.5, 289.0, 34.0 ],
					"presentation" : 1,
					"presentation_rect" : [ 85.0, 59.5, 289.0, 34.0 ],
					"text" : "MIDI Bibliothek"
				}

			}
, 			{
				"box" : 				{
					"fontname" : "Arial",
					"fontsize" : 12.0,
					"id" : "obj-10",
					"maxclass" : "newobj",
					"numinlets" : 0,
					"numoutlets" : 1,
					"outlettype" : [ "bang" ],
					"patching_rect" : [ 320.833374, 814.5, 65.0, 20.0 ],
					"text" : "closebang"
				}

			}
, 			{
				"box" : 				{
					"fontname" : "Arial",
					"fontsize" : 12.0,
					"frgb" : 0.0,
					"id" : "obj-8",
					"maxclass" : "comment",
					"numinlets" : 1,
					"numoutlets" : 0,
					"patching_rect" : [ 619.0, 702.0, 52.0, 20.0 ],
					"presentation" : 1,
					"presentation_rect" : [ 245.0, 260.5, 52.0, 20.0 ],
					"text" : "chorus"
				}

			}
, 			{
				"box" : 				{
					"fontname" : "Arial",
					"fontsize" : 12.0,
					"frgb" : 0.0,
					"id" : "obj-9",
					"maxclass" : "comment",
					"numinlets" : 1,
					"numoutlets" : 0,
					"patching_rect" : [ 619.0, 634.0, 52.0, 20.0 ],
					"presentation" : 1,
					"presentation_rect" : [ 85.0, 260.5, 52.0, 20.0 ],
					"text" : "reverb"
				}

			}
, 			{
				"box" : 				{
					"fontname" : "Arial",
					"fontsize" : 12.0,
					"frgb" : 0.0,
					"id" : "obj-14",
					"maxclass" : "comment",
					"numinlets" : 1,
					"numoutlets" : 0,
					"patching_rect" : [ 419.0, 512.5, 58.0, 20.0 ],
					"presentation" : 1,
					"presentation_rect" : [ 218.5, 193.0, 58.0, 20.0 ],
					"text" : "gain"
				}

			}
, 			{
				"box" : 				{
					"fontname" : "Arial",
					"fontsize" : 12.0,
					"frgb" : 0.0,
					"id" : "obj-15",
					"maxclass" : "comment",
					"numinlets" : 1,
					"numoutlets" : 0,
					"patching_rect" : [ 206.5, 93.0, 58.0, 20.0 ],
					"presentation" : 1,
					"presentation_rect" : [ 153.0, 193.0, 58.0, 20.0 ],
					"text" : "duration"
				}

			}
, 			{
				"box" : 				{
					"fontname" : "Arial",
					"fontsize" : 12.0,
					"frgb" : 0.0,
					"id" : "obj-2",
					"maxclass" : "comment",
					"numinlets" : 1,
					"numoutlets" : 0,
					"patching_rect" : [ 143.5, 93.0, 58.0, 20.0 ],
					"presentation" : 1,
					"presentation_rect" : [ 85.0, 193.0, 58.0, 20.0 ],
					"text" : "velocity"
				}

			}
, 			{
				"box" : 				{
					"comment" : "",
					"id" : "obj-16",
					"maxclass" : "inlet",
					"numinlets" : 0,
					"numoutlets" : 1,
					"outlettype" : [ "" ],
					"patching_rect" : [ 120.0, 719.5, 25.0, 25.0 ]
				}

			}
, 			{
				"box" : 				{
					"fontname" : "Arial",
					"fontsize" : 12.0,
					"id" : "obj-5",
					"maxclass" : "number",
					"minimum" : 0,
					"numinlets" : 1,
					"numoutlets" : 2,
					"outlettype" : [ "int", "bang" ],
					"parameter_enable" : 0,
					"patching_rect" : [ 200.0, 119.5, 50.0, 20.0 ],
					"presentation" : 1,
					"presentation_rect" : [ 153.0, 219.5, 50.0, 20.0 ]
				}

			}
, 			{
				"box" : 				{
					"fontname" : "Arial",
					"fontsize" : 12.0,
					"id" : "obj-4",
					"maxclass" : "number",
					"minimum" : 0,
					"numinlets" : 1,
					"numoutlets" : 2,
					"outlettype" : [ "int", "bang" ],
					"parameter_enable" : 0,
					"patching_rect" : [ 143.5, 119.5, 50.0, 20.0 ],
					"presentation" : 1,
					"presentation_rect" : [ 85.0, 219.5, 50.0, 20.0 ]
				}

			}
, 			{
				"box" : 				{
					"comment" : "",
					"id" : "obj-17",
					"maxclass" : "inlet",
					"numinlets" : 0,
					"numoutlets" : 1,
					"outlettype" : [ "" ],
					"patching_rect" : [ 95.0, 117.0, 25.0, 25.0 ]
				}

			}
, 			{
				"box" : 				{
					"fontname" : "Arial",
					"fontsize" : 12.0,
					"id" : "obj-51",
					"maxclass" : "message",
					"numinlets" : 2,
					"numoutlets" : 1,
					"outlettype" : [ "" ],
					"patching_rect" : [ 422.0, 759.5, 32.5, 18.0 ],
					"text" : "0"
				}

			}
, 			{
				"box" : 				{
					"fontname" : "Arial",
					"fontsize" : 12.0,
					"id" : "obj-52",
					"maxclass" : "message",
					"numinlets" : 2,
					"numoutlets" : 1,
					"outlettype" : [ "" ],
					"patching_rect" : [ 477.0, 759.5, 32.5, 18.0 ],
					"text" : "1"
				}

			}
, 			{
				"box" : 				{
					"fontname" : "Arial",
					"fontsize" : 12.0,
					"id" : "obj-56",
					"maxclass" : "message",
					"numinlets" : 2,
					"numoutlets" : 1,
					"outlettype" : [ "" ],
					"patching_rect" : [ 422.0, 611.5, 32.5, 18.0 ],
					"text" : "0"
				}

			}
, 			{
				"box" : 				{
					"fontname" : "Arial",
					"fontsize" : 12.0,
					"id" : "obj-57",
					"maxclass" : "message",
					"numinlets" : 2,
					"numoutlets" : 1,
					"outlettype" : [ "" ],
					"patching_rect" : [ 477.0, 611.5, 32.5, 18.0 ],
					"text" : "1"
				}

			}
, 			{
				"box" : 				{
					"id" : "obj-65",
					"maxclass" : "toggle",
					"numinlets" : 1,
					"numoutlets" : 1,
					"outlettype" : [ "int" ],
					"parameter_enable" : 0,
					"patching_rect" : [ 383.0, 626.0, 20.0, 20.0 ]
				}

			}
, 			{
				"box" : 				{
					"fontname" : "Arial",
					"fontsize" : 12.0,
					"id" : "obj-83",
					"maxclass" : "newobj",
					"numinlets" : 2,
					"numoutlets" : 1,
					"outlettype" : [ "bang" ],
					"patching_rect" : [ 364.0, 653.0, 58.0, 20.0 ],
					"text" : "metro 10"
				}

			}
, 			{
				"box" : 				{
					"id" : "obj-90",
					"maxclass" : "button",
					"numinlets" : 1,
					"numoutlets" : 1,
					"outlettype" : [ "bang" ],
					"patching_rect" : [ 342.833374, 653.0, 21.0, 21.0 ]
				}

			}
, 			{
				"box" : 				{
					"id" : "obj-97",
					"maxclass" : "toggle",
					"numinlets" : 1,
					"numoutlets" : 1,
					"outlettype" : [ "int" ],
					"parameter_enable" : 0,
					"patching_rect" : [ 383.0, 702.0, 20.0, 20.0 ]
				}

			}
, 			{
				"box" : 				{
					"fontname" : "Arial",
					"fontsize" : 12.0,
					"id" : "obj-100",
					"maxclass" : "newobj",
					"numinlets" : 2,
					"numoutlets" : 1,
					"outlettype" : [ "bang" ],
					"patching_rect" : [ 364.0, 729.0, 58.0, 20.0 ],
					"text" : "metro 10"
				}

			}
, 			{
				"box" : 				{
					"id" : "obj-156",
					"maxclass" : "button",
					"numinlets" : 1,
					"numoutlets" : 1,
					"outlettype" : [ "bang" ],
					"patching_rect" : [ 342.833374, 729.0, 21.0, 21.0 ]
				}

			}
, 			{
				"box" : 				{
					"fontname" : "Arial",
					"fontsize" : 12.0,
					"id" : "obj-18",
					"maxclass" : "newobj",
					"numinlets" : 1,
					"numoutlets" : 1,
					"outlettype" : [ "bang" ],
					"patching_rect" : [ 202.0, 814.5, 60.0, 20.0 ],
					"text" : "loadbang"
				}

			}
, 			{
				"box" : 				{
					"id" : "obj-164",
					"maxclass" : "incdec",
					"numinlets" : 1,
					"numoutlets" : 1,
					"outlettype" : [ "float" ],
					"parameter_enable" : 0,
					"patching_rect" : [ 453.0, 462.5, 24.0, 28.0 ],
					"presentation" : 1,
					"presentation_rect" : [ 276.5, 219.5, 24.0, 28.0 ]
				}

			}
, 			{
				"box" : 				{
					"fontname" : "Arial",
					"fontsize" : 12.0,
					"id" : "obj-165",
					"maxclass" : "message",
					"numinlets" : 2,
					"numoutlets" : 1,
					"outlettype" : [ "" ],
					"patching_rect" : [ 399.0, 486.5, 50.0, 18.0 ],
					"text" : "gain $1"
				}

			}
, 			{
				"box" : 				{
					"fontname" : "Arial",
					"fontsize" : 12.0,
					"id" : "obj-166",
					"maxclass" : "message",
					"numinlets" : 2,
					"numoutlets" : 1,
					"outlettype" : [ "" ],
					"patching_rect" : [ 333.0, 486.5, 64.0, 18.0 ],
					"text" : "bend $1 1"
				}

			}
, 			{
				"box" : 				{
					"fontname" : "Arial",
					"fontsize" : 12.0,
					"id" : "obj-167",
					"maxclass" : "message",
					"numinlets" : 2,
					"numoutlets" : 1,
					"outlettype" : [ "" ],
					"patching_rect" : [ 422.0, 655.5, 71.0, 18.0 ],
					"presentation" : 1,
					"presentation_rect" : [ 85.0, 289.5, 71.0, 18.0 ],
					"text" : "reverb off"
				}

			}
, 			{
				"box" : 				{
					"fontname" : "Arial",
					"fontsize" : 12.0,
					"id" : "obj-168",
					"maxclass" : "message",
					"numinlets" : 2,
					"numoutlets" : 1,
					"outlettype" : [ "" ],
					"patching_rect" : [ 422.0, 731.5, 70.0, 18.0 ],
					"presentation" : 1,
					"presentation_rect" : [ 245.0, 289.5, 70.0, 18.0 ],
					"text" : "chorus off"
				}

			}
, 			{
				"box" : 				{
					"fontname" : "Arial",
					"fontsize" : 12.0,
					"id" : "obj-169",
					"maxclass" : "message",
					"numinlets" : 2,
					"numoutlets" : 1,
					"outlettype" : [ "" ],
					"patching_rect" : [ 583.0, 731.5, 146.0, 18.0 ],
					"presentation" : 1,
					"presentation_rect" : [ 245.0, 341.5, 146.0, 18.0 ],
					"text" : "chorus 10 0.5 40 0 10"
				}

			}
, 			{
				"box" : 				{
					"fontname" : "Arial",
					"fontsize" : 9.0,
					"frgb" : 0.0,
					"id" : "obj-170",
					"maxclass" : "comment",
					"numinlets" : 1,
					"numoutlets" : 0,
					"patching_rect" : [ 712.0, 702.0, 420.0, 17.0 ],
					"text" : "set chorus parameters: level, speed, depth, type, number of units or switch chorus on/off"
				}

			}
, 			{
				"box" : 				{
					"fontname" : "Arial",
					"fontsize" : 12.0,
					"id" : "obj-171",
					"maxclass" : "message",
					"numinlets" : 2,
					"numoutlets" : 1,
					"outlettype" : [ "" ],
					"patching_rect" : [ 477.0, 731.5, 121.0, 18.0 ],
					"presentation" : 1,
					"presentation_rect" : [ 245.0, 316.5, 121.0, 18.0 ],
					"text" : "chorus 2 0.3 8 0 3"
				}

			}
, 			{
				"box" : 				{
					"fontname" : "Arial",
					"fontsize" : 12.0,
					"id" : "obj-172",
					"maxclass" : "message",
					"numinlets" : 2,
					"numoutlets" : 1,
					"outlettype" : [ "" ],
					"patching_rect" : [ 583.0, 655.5, 137.0, 18.0 ],
					"presentation" : 1,
					"presentation_rect" : [ 85.0, 341.5, 137.0, 18.0 ],
					"text" : "reverb 1. 0.8 0.5 0.7"
				}

			}
, 			{
				"box" : 				{
					"fontname" : "Arial",
					"fontsize" : 9.0,
					"frgb" : 0.0,
					"id" : "obj-173",
					"maxclass" : "comment",
					"numinlets" : 1,
					"numoutlets" : 0,
					"patching_rect" : [ 712.0, 634.0, 378.0, 17.0 ],
					"text" : "set reverb parameters: level, room size, damping, width or switch reberb on/off"
				}

			}
, 			{
				"box" : 				{
					"fontname" : "Arial",
					"fontsize" : 12.0,
					"id" : "obj-174",
					"maxclass" : "message",
					"numinlets" : 2,
					"numoutlets" : 1,
					"outlettype" : [ "" ],
					"patching_rect" : [ 477.0, 655.5, 137.0, 18.0 ],
					"presentation" : 1,
					"presentation_rect" : [ 85.0, 316.5, 137.0, 18.0 ],
					"text" : "reverb 0.9 0.2 0 0.5"
				}

			}
, 			{
				"box" : 				{
					"fontname" : "Arial",
					"fontsize" : 12.0,
					"id" : "obj-175",
					"maxclass" : "number",
					"maximum" : 10,
					"minimum" : 1,
					"numinlets" : 1,
					"numoutlets" : 2,
					"outlettype" : [ "int", "bang" ],
					"parameter_enable" : 0,
					"patching_rect" : [ 399.0, 462.5, 42.0, 20.0 ],
					"presentation" : 1,
					"presentation_rect" : [ 218.5, 219.5, 50.0, 20.0 ]
				}

			}
, 			{
				"box" : 				{
					"bgcolor" : [ 0.866667, 0.866667, 0.866667, 1.0 ],
					"fontname" : "Arial",
					"fontsize" : 9.0,
					"htextcolor" : [ 0.870588, 0.870588, 0.870588, 1.0 ],
					"id" : "obj-176",
					"maxclass" : "flonum",
					"numinlets" : 1,
					"numoutlets" : 2,
					"outlettype" : [ "float", "bang" ],
					"parameter_enable" : 0,
					"patching_rect" : [ 333.0, 462.5, 45.0, 17.0 ],
					"triscale" : 0.9
				}

			}
, 			{
				"box" : 				{
					"id" : "obj-177",
					"maxclass" : "slider",
					"min" : 64.0,
					"numinlets" : 1,
					"numoutlets" : 1,
					"orientation" : 1,
					"outlettype" : [ "" ],
					"parameter_enable" : 0,
					"patching_rect" : [ 333.0, 435.5, 144.0, 15.0 ],
					"size" : 64.0
				}

			}
, 			{
				"box" : 				{
					"id" : "obj-178",
					"maxclass" : "toggle",
					"numinlets" : 1,
					"numoutlets" : 1,
					"outlettype" : [ "int" ],
					"parameter_enable" : 0,
					"patching_rect" : [ 270.5, 454.5, 20.0, 20.0 ]
				}

			}
, 			{
				"box" : 				{
					"fontname" : "Arial",
					"fontsize" : 12.0,
					"id" : "obj-179",
					"maxclass" : "message",
					"numinlets" : 2,
					"numoutlets" : 1,
					"outlettype" : [ "" ],
					"patching_rect" : [ 270.5, 486.5, 54.0, 18.0 ],
					"text" : "mute $1"
				}

			}
, 			{
				"box" : 				{
					"fontname" : "Arial",
					"fontsize" : 12.0,
					"id" : "obj-180",
					"maxclass" : "message",
					"numinlets" : 2,
					"numoutlets" : 1,
					"outlettype" : [ "" ],
					"patching_rect" : [ 216.0, 486.5, 39.0, 18.0 ],
					"presentation" : 1,
					"presentation_rect" : [ 129.0, 128.5, 39.0, 18.0 ],
					"text" : "panic"
				}

			}
, 			{
				"box" : 				{
					"fontname" : "Arial",
					"fontsize" : 12.0,
					"id" : "obj-181",
					"maxclass" : "message",
					"numinlets" : 2,
					"numoutlets" : 1,
					"outlettype" : [ "" ],
					"patching_rect" : [ 152.0, 486.5, 33.0, 18.0 ],
					"presentation" : 1,
					"presentation_rect" : [ 85.0, 128.5, 33.0, 18.0 ],
					"text" : "load"
				}

			}
, 			{
				"box" : 				{
					"fontname" : "Arial",
					"fontsize" : 9.0,
					"id" : "obj-182",
					"maxclass" : "newobj",
					"numinlets" : 2,
					"numoutlets" : 2,
					"outlettype" : [ "int", "int" ],
					"patching_rect" : [ 302.0, 350.5, 50.0, 17.0 ],
					"text" : "stripnote"
				}

			}
, 			{
				"box" : 				{
					"fontname" : "Arial",
					"fontsize" : 9.0,
					"id" : "obj-183",
					"maxclass" : "newobj",
					"numinlets" : 1,
					"numoutlets" : 1,
					"outlettype" : [ "" ],
					"patching_rect" : [ 302.0, 373.5, 62.0, 17.0 ],
					"text" : "prepend set"
				}

			}
, 			{
				"box" : 				{
					"fontname" : "Arial",
					"fontsize" : 9.0,
					"id" : "obj-184",
					"maxclass" : "newobj",
					"numinlets" : 1,
					"numoutlets" : 1,
					"outlettype" : [ "" ],
					"patching_rect" : [ 376.0, 373.5, 62.0, 17.0 ],
					"text" : "prepend set"
				}

			}
, 			{
				"box" : 				{
					"fontname" : "Arial",
					"fontsize" : 9.0,
					"id" : "obj-185",
					"maxclass" : "newobj",
					"numinlets" : 3,
					"numoutlets" : 2,
					"outlettype" : [ "float", "float" ],
					"patching_rect" : [ 95.0, 177.5, 94.0, 17.0 ],
					"text" : "makenote 120 400"
				}

			}
, 			{
				"box" : 				{
					"fontname" : "Arial",
					"fontsize" : 9.0,
					"id" : "obj-186",
					"maxclass" : "message",
					"numinlets" : 2,
					"numoutlets" : 1,
					"outlettype" : [ "" ],
					"patching_rect" : [ 353.0, 287.5, 87.0, 15.0 ],
					"text" : "control $2 $1 $3"
				}

			}
, 			{
				"box" : 				{
					"fontname" : "Arial",
					"fontsize" : 9.0,
					"id" : "obj-187",
					"maxclass" : "newobj",
					"numinlets" : 3,
					"numoutlets" : 1,
					"outlettype" : [ "" ],
					"patching_rect" : [ 353.0, 263.5, 58.0, 17.0 ],
					"text" : "pack 0 0 0"
				}

			}
, 			{
				"box" : 				{
					"fontname" : "Arial",
					"fontsize" : 9.0,
					"id" : "obj-188",
					"maxclass" : "newobj",
					"numinlets" : 1,
					"numoutlets" : 3,
					"outlettype" : [ "int", "int", "int" ],
					"patching_rect" : [ 353.0, 211.5, 58.0, 17.0 ],
					"text" : "ctlin"
				}

			}
, 			{
				"box" : 				{
					"fontname" : "Arial",
					"fontsize" : 9.0,
					"id" : "obj-189",
					"maxclass" : "newobj",
					"numinlets" : 1,
					"numoutlets" : 1,
					"outlettype" : [ "" ],
					"patching_rect" : [ 268.0, 286.5, 67.0, 17.0 ],
					"text" : "prepend bend"
				}

			}
, 			{
				"box" : 				{
					"fontname" : "Arial",
					"fontsize" : 9.0,
					"id" : "obj-192",
					"maxclass" : "newobj",
					"numinlets" : 2,
					"numoutlets" : 1,
					"outlettype" : [ "" ],
					"patching_rect" : [ 268.0, 263.5, 58.0, 17.0 ],
					"text" : "pack 0 0"
				}

			}
, 			{
				"box" : 				{
					"fontname" : "Arial",
					"fontsize" : 9.0,
					"id" : "obj-193",
					"maxclass" : "newobj",
					"numinlets" : 1,
					"numoutlets" : 2,
					"outlettype" : [ "int", "int" ],
					"patching_rect" : [ 268.0, 211.5, 58.0, 17.0 ],
					"text" : "bendin"
				}

			}
, 			{
				"box" : 				{
					"fontname" : "Arial",
					"fontsize" : 9.0,
					"id" : "obj-194",
					"maxclass" : "newobj",
					"numinlets" : 1,
					"numoutlets" : 1,
					"outlettype" : [ "" ],
					"patching_rect" : [ 183.0, 286.5, 67.0, 17.0 ],
					"text" : "prepend note"
				}

			}
, 			{
				"box" : 				{
					"fontname" : "Arial",
					"fontsize" : 9.0,
					"id" : "obj-195",
					"maxclass" : "newobj",
					"numinlets" : 3,
					"numoutlets" : 1,
					"outlettype" : [ "" ],
					"patching_rect" : [ 183.0, 263.5, 58.0, 17.0 ],
					"text" : "pack 0 0 1"
				}

			}
, 			{
				"box" : 				{
					"fontname" : "Arial",
					"fontsize" : 9.0,
					"id" : "obj-196",
					"maxclass" : "newobj",
					"numinlets" : 1,
					"numoutlets" : 3,
					"outlettype" : [ "int", "int", "int" ],
					"patching_rect" : [ 183.0, 211.5, 58.0, 17.0 ],
					"text" : "notein"
				}

			}
, 			{
				"box" : 				{
					"id" : "obj-197",
					"maxclass" : "incdec",
					"numinlets" : 1,
					"numoutlets" : 1,
					"outlettype" : [ "float" ],
					"parameter_enable" : 0,
					"patching_rect" : [ 615.75, 470.5, 32.5, 51.0 ],
					"presentation" : 1,
					"presentation_rect" : [ 245.0, 128.5, 21.5, 43.0 ]
				}

			}
, 			{
				"box" : 				{
					"bgcolor" : [ 0.866667, 0.866667, 0.866667, 1.0 ],
					"fontname" : "Arial",
					"fontsize" : 12.0,
					"htextcolor" : [ 0.870588, 0.870588, 0.870588, 1.0 ],
					"id" : "obj-200",
					"maxclass" : "number",
					"minimum" : 0,
					"numinlets" : 1,
					"numoutlets" : 2,
					"outlettype" : [ "int", "bang" ],
					"parameter_enable" : 0,
					"patching_rect" : [ 514.0, 498.0, 51.0, 20.0 ],
					"presentation" : 1,
					"presentation_rect" : [ 185.0, 128.5, 56.0, 20.0 ],
					"triscale" : 0.9
				}

			}
, 			{
				"box" : 				{
					"fontname" : "Arial",
					"fontsize" : 9.0,
					"id" : "obj-201",
					"linecount" : 2,
					"maxclass" : "newobj",
					"numinlets" : 1,
					"numoutlets" : 1,
					"outlettype" : [ "" ],
					"patching_rect" : [ 202.0, 772.5, 50.0, 27.0 ],
					"text" : "loadmess 120"
				}

			}
, 			{
				"box" : 				{
					"fontname" : "Arial",
					"fontsize" : 9.0,
					"id" : "obj-202",
					"maxclass" : "message",
					"numinlets" : 2,
					"numoutlets" : 1,
					"outlettype" : [ "" ],
					"patching_rect" : [ 254.0, 845.5, 27.0, 15.0 ],
					"text" : "stop"
				}

			}
, 			{
				"box" : 				{
					"fontname" : "Arial",
					"fontsize" : 9.0,
					"id" : "obj-203",
					"maxclass" : "message",
					"numinlets" : 2,
					"numoutlets" : 1,
					"outlettype" : [ "" ],
					"patching_rect" : [ 186.0, 845.5, 65.0, 15.0 ],
					"text" : "startwindow"
				}

			}
, 			{
				"box" : 				{
					"fontname" : "Arial",
					"fontsize" : 9.0,
					"id" : "obj-204",
					"maxclass" : "newobj",
					"numinlets" : 2,
					"numoutlets" : 0,
					"patching_rect" : [ 150.0, 871.5, 31.0, 17.0 ],
					"text" : "dac~"
				}

			}
, 			{
				"box" : 				{
					"fontname" : "Arial",
					"fontsize" : 9.0,
					"id" : "obj-207",
					"maxclass" : "newobj",
					"numinlets" : 2,
					"numoutlets" : 2,
					"outlettype" : [ "", "" ],
					"patching_rect" : [ 264.0, 759.5, 122.0, 17.0 ],
					"text" : "route bang"
				}

			}
, 			{
				"box" : 				{
					"id" : "obj-209",
					"maxclass" : "gain~",
					"numinlets" : 2,
					"numoutlets" : 2,
					"orientation" : 2,
					"outlettype" : [ "signal", "int" ],
					"parameter_enable" : 0,
					"patching_rect" : [ 174.0, 772.5, 17.0, 53.0 ]
				}

			}
, 			{
				"box" : 				{
					"id" : "obj-210",
					"maxclass" : "gain~",
					"numinlets" : 2,
					"numoutlets" : 2,
					"orientation" : 2,
					"outlettype" : [ "signal", "int" ],
					"parameter_enable" : 0,
					"patching_rect" : [ 153.0, 772.5, 17.0, 53.0 ]
				}

			}
, 			{
				"box" : 				{
					"fontname" : "Arial",
					"fontsize" : 18.0,
					"id" : "obj-211",
					"maxclass" : "newobj",
					"numinlets" : 1,
					"numoutlets" : 3,
					"outlettype" : [ "signal", "signal", "anything" ],
					"patching_rect" : [ 152.0, 719.5, 122.0, 27.0 ],
					"text" : "fluidsynth~"
				}

			}
, 			{
				"box" : 				{
					"fontname" : "Arial",
					"fontsize" : 9.0,
					"frgb" : 0.0,
					"id" : "obj-212",
					"maxclass" : "comment",
					"numinlets" : 1,
					"numoutlets" : 0,
					"patching_rect" : [ 303.0, 785.5, 75.0, 17.0 ],
					"text" : "bang after load"
				}

			}
, 			{
				"box" : 				{
					"fontname" : "Arial",
					"fontsize" : 12.0,
					"frgb" : 0.0,
					"id" : "obj-213",
					"maxclass" : "comment",
					"numinlets" : 1,
					"numoutlets" : 0,
					"patching_rect" : [ 661.0, 494.0, 85.0, 20.0 ],
					"presentation" : 1,
					"presentation_rect" : [ 183.0, 101.5, 85.0, 20.0 ],
					"text" : "MIDI channel"
				}

			}
, 			{
				"box" : 				{
					"fontname" : "Arial",
					"fontsize" : 12.0,
					"id" : "obj-7",
					"maxclass" : "newobj",
					"numinlets" : 6,
					"numoutlets" : 1,
					"outlettype" : [ "" ],
					"patching_rect" : [ 10.0, 90.5, 99.0, 20.0 ],
					"text" : "scale 0. 1. 0. 64."
				}

			}
, 			{
				"box" : 				{
					"fontname" : "Arial",
					"fontsize" : 12.0,
					"id" : "obj-1",
					"maxclass" : "newobj",
					"numinlets" : 0,
					"numoutlets" : 1,
					"outlettype" : [ "" ],
					"patching_rect" : [ 10.0, 57.0, 63.0, 20.0 ],
					"text" : "r VALUE1"
				}

			}
, 			{
				"box" : 				{
					"fontname" : "Arial",
					"fontsize" : 12.0,
					"id" : "obj-6",
					"maxclass" : "newobj",
					"numinlets" : 0,
					"numoutlets" : 1,
					"outlettype" : [ "" ],
					"patching_rect" : [ 10.0, 12.5, 50.0, 20.0 ],
					"text" : "r MIDI1"
				}

			}
, 			{
				"box" : 				{
					"fontname" : "Arial",
					"fontsize" : 12.0,
					"id" : "obj-3",
					"maxclass" : "message",
					"numinlets" : 2,
					"numoutlets" : 1,
					"outlettype" : [ "" ],
					"patching_rect" : [ 55.75, 699.0, 32.5, 18.0 ],
					"text" : "119"
				}

			}
, 			{
				"box" : 				{
					"fontname" : "Arial",
					"fontsize" : 12.0,
					"id" : "obj-161",
					"maxclass" : "newobj",
					"numinlets" : 1,
					"numoutlets" : 1,
					"outlettype" : [ "bang" ],
					"patching_rect" : [ 14.0, 647.5, 60.0, 20.0 ],
					"text" : "loadbang"
				}

			}
 ],
		"lines" : [ 			{
				"patchline" : 				{
					"destination" : [ "obj-7", 0 ],
					"disabled" : 0,
					"hidden" : 0,
					"source" : [ "obj-1", 0 ]
				}

			}
, 			{
				"patchline" : 				{
					"destination" : [ "obj-202", 0 ],
					"disabled" : 0,
					"hidden" : 0,
					"source" : [ "obj-10", 0 ]
				}

			}
, 			{
				"patchline" : 				{
					"destination" : [ "obj-156", 0 ],
					"disabled" : 0,
					"hidden" : 0,
					"source" : [ "obj-100", 0 ]
				}

			}
, 			{
				"patchline" : 				{
					"destination" : [ "obj-201", 0 ],
					"disabled" : 0,
					"hidden" : 0,
					"source" : [ "obj-12", 0 ]
				}

			}
, 			{
				"patchline" : 				{
					"destination" : [ "obj-3", 0 ],
					"disabled" : 0,
					"hidden" : 0,
					"source" : [ "obj-161", 0 ]
				}

			}
, 			{
				"patchline" : 				{
					"destination" : [ "obj-175", 0 ],
					"disabled" : 0,
					"hidden" : 0,
					"source" : [ "obj-164", 0 ]
				}

			}
, 			{
				"patchline" : 				{
					"destination" : [ "obj-211", 0 ],
					"disabled" : 0,
					"hidden" : 0,
					"midpoints" : [ 408.5, 537.5, 161.5, 537.5 ],
					"source" : [ "obj-165", 0 ]
				}

			}
, 			{
				"patchline" : 				{
					"destination" : [ "obj-211", 0 ],
					"disabled" : 0,
					"hidden" : 0,
					"midpoints" : [ 342.5, 540.5, 161.5, 540.5 ],
					"source" : [ "obj-166", 0 ]
				}

			}
, 			{
				"patchline" : 				{
					"destination" : [ "obj-211", 0 ],
					"disabled" : 0,
					"hidden" : 0,
					"midpoints" : [ 431.5, 679.5, 161.5, 679.5 ],
					"source" : [ "obj-167", 0 ]
				}

			}
, 			{
				"patchline" : 				{
					"destination" : [ "obj-56", 0 ],
					"disabled" : 0,
					"hidden" : 0,
					"source" : [ "obj-167", 0 ]
				}

			}
, 			{
				"patchline" : 				{
					"destination" : [ "obj-211", 0 ],
					"disabled" : 0,
					"hidden" : 0,
					"midpoints" : [ 431.5, 713.5, 161.5, 713.5 ],
					"source" : [ "obj-168", 0 ]
				}

			}
, 			{
				"patchline" : 				{
					"destination" : [ "obj-51", 0 ],
					"disabled" : 0,
					"hidden" : 0,
					"source" : [ "obj-168", 0 ]
				}

			}
, 			{
				"patchline" : 				{
					"destination" : [ "obj-211", 0 ],
					"disabled" : 0,
					"hidden" : 0,
					"midpoints" : [ 592.5, 713.5, 161.5, 713.5 ],
					"source" : [ "obj-169", 0 ]
				}

			}
, 			{
				"patchline" : 				{
					"destination" : [ "obj-52", 0 ],
					"disabled" : 0,
					"hidden" : 0,
					"source" : [ "obj-169", 0 ]
				}

			}
, 			{
				"patchline" : 				{
					"destination" : [ "obj-211", 0 ],
					"disabled" : 0,
					"hidden" : 0,
					"midpoints" : [ 486.5, 714.5, 161.5, 714.5 ],
					"source" : [ "obj-171", 0 ]
				}

			}
, 			{
				"patchline" : 				{
					"destination" : [ "obj-52", 0 ],
					"disabled" : 0,
					"hidden" : 0,
					"source" : [ "obj-171", 0 ]
				}

			}
, 			{
				"patchline" : 				{
					"destination" : [ "obj-211", 0 ],
					"disabled" : 0,
					"hidden" : 0,
					"midpoints" : [ 592.5, 682.5, 161.5, 682.5 ],
					"source" : [ "obj-172", 0 ]
				}

			}
, 			{
				"patchline" : 				{
					"destination" : [ "obj-57", 0 ],
					"disabled" : 0,
					"hidden" : 0,
					"source" : [ "obj-172", 0 ]
				}

			}
, 			{
				"patchline" : 				{
					"destination" : [ "obj-211", 0 ],
					"disabled" : 0,
					"hidden" : 0,
					"midpoints" : [ 486.5, 681.5, 161.5, 681.5 ],
					"source" : [ "obj-174", 0 ]
				}

			}
, 			{
				"patchline" : 				{
					"destination" : [ "obj-57", 0 ],
					"disabled" : 0,
					"hidden" : 0,
					"source" : [ "obj-174", 0 ]
				}

			}
, 			{
				"patchline" : 				{
					"destination" : [ "obj-164", 0 ],
					"disabled" : 0,
					"hidden" : 0,
					"source" : [ "obj-175", 0 ]
				}

			}
, 			{
				"patchline" : 				{
					"destination" : [ "obj-165", 0 ],
					"disabled" : 0,
					"hidden" : 0,
					"source" : [ "obj-175", 0 ]
				}

			}
, 			{
				"patchline" : 				{
					"destination" : [ "obj-166", 0 ],
					"disabled" : 0,
					"hidden" : 0,
					"source" : [ "obj-176", 0 ]
				}

			}
, 			{
				"patchline" : 				{
					"destination" : [ "obj-176", 0 ],
					"disabled" : 0,
					"hidden" : 0,
					"source" : [ "obj-177", 0 ]
				}

			}
, 			{
				"patchline" : 				{
					"destination" : [ "obj-179", 0 ],
					"disabled" : 0,
					"hidden" : 0,
					"source" : [ "obj-178", 0 ]
				}

			}
, 			{
				"patchline" : 				{
					"destination" : [ "obj-211", 0 ],
					"disabled" : 0,
					"hidden" : 0,
					"midpoints" : [ 280.0, 539.5, 161.5, 539.5 ],
					"source" : [ "obj-179", 0 ]
				}

			}
, 			{
				"patchline" : 				{
					"destination" : [ "obj-203", 0 ],
					"disabled" : 0,
					"hidden" : 0,
					"source" : [ "obj-18", 0 ]
				}

			}
, 			{
				"patchline" : 				{
					"destination" : [ "obj-211", 0 ],
					"disabled" : 0,
					"hidden" : 0,
					"midpoints" : [ 225.5, 541.5, 161.5, 541.5 ],
					"source" : [ "obj-180", 0 ]
				}

			}
, 			{
				"patchline" : 				{
					"destination" : [ "obj-211", 0 ],
					"disabled" : 0,
					"hidden" : 0,
					"source" : [ "obj-181", 0 ]
				}

			}
, 			{
				"patchline" : 				{
					"destination" : [ "obj-183", 0 ],
					"disabled" : 0,
					"hidden" : 0,
					"source" : [ "obj-182", 0 ]
				}

			}
, 			{
				"patchline" : 				{
					"destination" : [ "obj-200", 0 ],
					"disabled" : 0,
					"hidden" : 0,
					"midpoints" : [ 385.5, 400.5, 523.5, 400.5 ],
					"source" : [ "obj-184", 0 ]
				}

			}
, 			{
				"patchline" : 				{
					"destination" : [ "obj-195", 1 ],
					"disabled" : 0,
					"hidden" : 0,
					"source" : [ "obj-185", 1 ]
				}

			}
, 			{
				"patchline" : 				{
					"destination" : [ "obj-195", 0 ],
					"disabled" : 0,
					"hidden" : 0,
					"source" : [ "obj-185", 0 ]
				}

			}
, 			{
				"patchline" : 				{
					"destination" : [ "obj-211", 0 ],
					"disabled" : 0,
					"hidden" : 0,
					"source" : [ "obj-186", 0 ]
				}

			}
, 			{
				"patchline" : 				{
					"destination" : [ "obj-186", 0 ],
					"disabled" : 0,
					"hidden" : 0,
					"source" : [ "obj-187", 0 ]
				}

			}
, 			{
				"patchline" : 				{
					"destination" : [ "obj-184", 0 ],
					"disabled" : 0,
					"hidden" : 0,
					"source" : [ "obj-188", 2 ]
				}

			}
, 			{
				"patchline" : 				{
					"destination" : [ "obj-187", 2 ],
					"disabled" : 0,
					"hidden" : 0,
					"source" : [ "obj-188", 2 ]
				}

			}
, 			{
				"patchline" : 				{
					"destination" : [ "obj-187", 1 ],
					"disabled" : 0,
					"hidden" : 0,
					"source" : [ "obj-188", 1 ]
				}

			}
, 			{
				"patchline" : 				{
					"destination" : [ "obj-187", 0 ],
					"disabled" : 0,
					"hidden" : 0,
					"source" : [ "obj-188", 0 ]
				}

			}
, 			{
				"patchline" : 				{
					"destination" : [ "obj-211", 0 ],
					"disabled" : 0,
					"hidden" : 0,
					"source" : [ "obj-189", 0 ]
				}

			}
, 			{
				"patchline" : 				{
					"destination" : [ "obj-189", 0 ],
					"disabled" : 0,
					"hidden" : 0,
					"source" : [ "obj-192", 0 ]
				}

			}
, 			{
				"patchline" : 				{
					"destination" : [ "obj-184", 0 ],
					"disabled" : 0,
					"hidden" : 0,
					"source" : [ "obj-193", 1 ]
				}

			}
, 			{
				"patchline" : 				{
					"destination" : [ "obj-192", 1 ],
					"disabled" : 0,
					"hidden" : 0,
					"source" : [ "obj-193", 1 ]
				}

			}
, 			{
				"patchline" : 				{
					"destination" : [ "obj-192", 0 ],
					"disabled" : 0,
					"hidden" : 0,
					"source" : [ "obj-193", 0 ]
				}

			}
, 			{
				"patchline" : 				{
					"destination" : [ "obj-211", 0 ],
					"disabled" : 0,
					"hidden" : 0,
					"source" : [ "obj-194", 0 ]
				}

			}
, 			{
				"patchline" : 				{
					"destination" : [ "obj-194", 0 ],
					"disabled" : 0,
					"hidden" : 0,
					"source" : [ "obj-195", 0 ]
				}

			}
, 			{
				"patchline" : 				{
					"destination" : [ "obj-182", 1 ],
					"disabled" : 0,
					"hidden" : 0,
					"source" : [ "obj-196", 1 ]
				}

			}
, 			{
				"patchline" : 				{
					"destination" : [ "obj-182", 0 ],
					"disabled" : 0,
					"hidden" : 0,
					"source" : [ "obj-196", 0 ]
				}

			}
, 			{
				"patchline" : 				{
					"destination" : [ "obj-184", 0 ],
					"disabled" : 0,
					"hidden" : 0,
					"source" : [ "obj-196", 2 ]
				}

			}
, 			{
				"patchline" : 				{
					"destination" : [ "obj-195", 2 ],
					"disabled" : 0,
					"hidden" : 0,
					"source" : [ "obj-196", 2 ]
				}

			}
, 			{
				"patchline" : 				{
					"destination" : [ "obj-195", 1 ],
					"disabled" : 0,
					"hidden" : 0,
					"source" : [ "obj-196", 1 ]
				}

			}
, 			{
				"patchline" : 				{
					"destination" : [ "obj-195", 0 ],
					"disabled" : 0,
					"hidden" : 0,
					"source" : [ "obj-196", 0 ]
				}

			}
, 			{
				"patchline" : 				{
					"destination" : [ "obj-200", 0 ],
					"disabled" : 0,
					"hidden" : 0,
					"midpoints" : [ 231.5, 241.5, 252.0, 241.5, 252.0, 191.5, 523.5, 191.5 ],
					"source" : [ "obj-196", 2 ]
				}

			}
, 			{
				"patchline" : 				{
					"destination" : [ "obj-200", 0 ],
					"disabled" : 0,
					"hidden" : 0,
					"source" : [ "obj-197", 0 ]
				}

			}
, 			{
				"patchline" : 				{
					"destination" : [ "obj-187", 2 ],
					"disabled" : 0,
					"hidden" : 0,
					"midpoints" : [ 523.5, 510.5, 504.0, 510.5, 504.0, 247.5, 401.5, 247.5 ],
					"source" : [ "obj-200", 0 ]
				}

			}
, 			{
				"patchline" : 				{
					"destination" : [ "obj-192", 1 ],
					"disabled" : 0,
					"hidden" : 0,
					"midpoints" : [ 523.5, 527.5, 503.0, 527.5, 503.0, 235.5, 316.5, 235.5 ],
					"source" : [ "obj-200", 0 ]
				}

			}
, 			{
				"patchline" : 				{
					"destination" : [ "obj-195", 2 ],
					"disabled" : 0,
					"hidden" : 0,
					"midpoints" : [ 523.5, 559.5, 490.0, 559.5, 490.0, 228.5, 231.5, 228.5 ],
					"source" : [ "obj-200", 0 ]
				}

			}
, 			{
				"patchline" : 				{
					"destination" : [ "obj-197", 0 ],
					"disabled" : 0,
					"hidden" : 0,
					"source" : [ "obj-200", 0 ]
				}

			}
, 			{
				"patchline" : 				{
					"destination" : [ "obj-210", 0 ],
					"disabled" : 0,
					"hidden" : 0,
					"source" : [ "obj-201", 0 ]
				}

			}
, 			{
				"patchline" : 				{
					"destination" : [ "obj-204", 0 ],
					"disabled" : 0,
					"hidden" : 0,
					"source" : [ "obj-202", 0 ]
				}

			}
, 			{
				"patchline" : 				{
					"destination" : [ "obj-204", 0 ],
					"disabled" : 0,
					"hidden" : 0,
					"source" : [ "obj-203", 0 ]
				}

			}
, 			{
				"patchline" : 				{
					"destination" : [ "obj-12", 0 ],
					"disabled" : 0,
					"hidden" : 0,
					"source" : [ "obj-207", 0 ]
				}

			}
, 			{
				"patchline" : 				{
					"destination" : [ "obj-204", 1 ],
					"disabled" : 0,
					"hidden" : 0,
					"source" : [ "obj-209", 0 ]
				}

			}
, 			{
				"patchline" : 				{
					"destination" : [ "obj-13", 0 ],
					"disabled" : 0,
					"hidden" : 0,
					"source" : [ "obj-210", 1 ]
				}

			}
, 			{
				"patchline" : 				{
					"destination" : [ "obj-204", 0 ],
					"disabled" : 0,
					"hidden" : 0,
					"source" : [ "obj-210", 0 ]
				}

			}
, 			{
				"patchline" : 				{
					"destination" : [ "obj-209", 0 ],
					"disabled" : 0,
					"hidden" : 0,
					"source" : [ "obj-210", 1 ]
				}

			}
, 			{
				"patchline" : 				{
					"destination" : [ "obj-207", 0 ],
					"disabled" : 0,
					"hidden" : 0,
					"source" : [ "obj-211", 2 ]
				}

			}
, 			{
				"patchline" : 				{
					"destination" : [ "obj-209", 0 ],
					"disabled" : 0,
					"hidden" : 0,
					"midpoints" : [ 213.0, 758.5, 180.5, 758.5 ],
					"source" : [ "obj-211", 1 ]
				}

			}
, 			{
				"patchline" : 				{
					"destination" : [ "obj-210", 0 ],
					"disabled" : 0,
					"hidden" : 0,
					"source" : [ "obj-211", 0 ]
				}

			}
, 			{
				"patchline" : 				{
					"destination" : [ "obj-32", 0 ],
					"disabled" : 0,
					"hidden" : 0,
					"source" : [ "obj-24", 0 ]
				}

			}
, 			{
				"patchline" : 				{
					"destination" : [ "obj-24", 0 ],
					"disabled" : 0,
					"hidden" : 0,
					"source" : [ "obj-29", 0 ]
				}

			}
, 			{
				"patchline" : 				{
					"destination" : [ "obj-24", 0 ],
					"disabled" : 0,
					"hidden" : 0,
					"source" : [ "obj-31", 0 ]
				}

			}
, 			{
				"patchline" : 				{
					"destination" : [ "obj-31", 0 ],
					"disabled" : 0,
					"hidden" : 0,
					"source" : [ "obj-33", 0 ]
				}

			}
, 			{
				"patchline" : 				{
					"destination" : [ "obj-185", 1 ],
					"disabled" : 0,
					"hidden" : 0,
					"source" : [ "obj-4", 0 ]
				}

			}
, 			{
				"patchline" : 				{
					"destination" : [ "obj-185", 2 ],
					"disabled" : 0,
					"hidden" : 0,
					"source" : [ "obj-5", 0 ]
				}

			}
, 			{
				"patchline" : 				{
					"destination" : [ "obj-97", 0 ],
					"disabled" : 0,
					"hidden" : 0,
					"source" : [ "obj-51", 0 ]
				}

			}
, 			{
				"patchline" : 				{
					"destination" : [ "obj-97", 0 ],
					"disabled" : 0,
					"hidden" : 0,
					"source" : [ "obj-52", 0 ]
				}

			}
, 			{
				"patchline" : 				{
					"destination" : [ "obj-65", 0 ],
					"disabled" : 0,
					"hidden" : 0,
					"source" : [ "obj-56", 0 ]
				}

			}
, 			{
				"patchline" : 				{
					"destination" : [ "obj-65", 0 ],
					"disabled" : 0,
					"hidden" : 0,
					"source" : [ "obj-57", 0 ]
				}

			}
, 			{
				"patchline" : 				{
					"destination" : [ "obj-83", 0 ],
					"disabled" : 0,
					"hidden" : 0,
					"source" : [ "obj-65", 0 ]
				}

			}
, 			{
				"patchline" : 				{
					"destination" : [ "obj-90", 0 ],
					"disabled" : 0,
					"hidden" : 0,
					"source" : [ "obj-83", 0 ]
				}

			}
, 			{
				"patchline" : 				{
					"destination" : [ "obj-100", 0 ],
					"disabled" : 0,
					"hidden" : 0,
					"source" : [ "obj-97", 0 ]
				}

			}
 ],
		"dependency_cache" : [ 			{
				"name" : "fluidsynth~.mxe",
				"type" : "iLaF"
			}
 ]
	}

}
